<svg width="11" height="11" viewBox="0 0 11 11" fill="none" xmlns="http://www.w3.org/2000/svg">
<path fill-rule="evenodd" clip-rule="evenodd" d="M6.79572 0.00436137C6.67302 -0.0132266 6.54978 0.0230485 6.45173 0.101095C6.35095 0.180241 6.28796 0.294562 6.27426 0.422624C6.24523 0.681496 6.43201 0.915636 6.69055 0.944766C8.47346 1.14373 9.85926 2.53263 10.0597 4.3211C10.0866 4.56073 10.2876 4.74156 10.5275 4.74156C10.5456 4.74156 10.5631 4.74046 10.5812 4.73826C10.7066 4.72452 10.8184 4.66241 10.8972 4.56348C10.9756 4.46455 11.0112 4.34143 10.9969 4.21557C10.7472 1.9841 9.02011 0.252241 6.79572 0.00436137ZM6.82991 1.91947C6.56809 1.8711 6.32763 2.03819 6.27778 2.29376C6.22794 2.54934 6.39555 2.79886 6.65025 2.84888C7.41709 2.99838 8.00921 3.59197 8.15929 4.36144V4.36199C8.20201 4.58349 8.39701 4.74453 8.62159 4.74453C8.65171 4.74453 8.68184 4.74178 8.71251 4.73628C8.96721 4.68517 9.13482 4.43619 9.08498 4.18007C8.86095 3.03081 7.97634 2.14316 6.82991 1.91947ZM7.70003 7.19979C7.94835 7.05661 8.2288 6.8949 8.58257 6.97016C8.903 7.03776 9.99521 7.9243 10.2943 8.23154C10.4904 8.4327 10.5994 8.64046 10.6164 8.84822C10.6459 9.66331 9.53839 10.5938 9.33682 10.7098C9.06897 10.9027 8.7573 11 8.40729 11C8.04962 11 7.65086 10.8983 7.21595 10.6955C4.85626 9.71057 1.25154 6.17705 0.298463 3.83566C-0.0970092 2.96396 -0.0997479 2.24505 0.29189 1.70477C0.447998 1.4514 1.33809 0.392273 2.13506 0.4258C2.34703 0.443937 2.55299 0.552763 2.7551 0.750627C3.06075 1.05017 3.92509 2.14557 3.99191 2.4671C4.06586 2.82435 3.90373 3.10851 3.75967 3.35804C3.72894 3.41168 3.68754 3.47533 3.64219 3.54507C3.47006 3.80975 3.24095 4.16203 3.32202 4.38693C3.90318 5.81375 5.2457 7.05864 6.67313 7.64344C6.89388 7.72367 7.24596 7.49293 7.50979 7.32003C7.57852 7.27498 7.64126 7.23387 7.69413 7.2032L7.70003 7.19979Z" />
</svg>
