<svg width="14" height="14" viewBox="0 0 14 14" fill="none" xmlns="http://www.w3.org/2000/svg">
<path fill-rule="evenodd" clip-rule="evenodd" d="M7.83216 7.04295H9.62062C9.89179 7.04295 10.1049 6.81875 10.1049 6.5484C10.1049 6.27144 9.89179 6.05384 9.62062 6.05384H7.83216C7.56099 6.05384 7.34793 6.27144 7.34793 6.5484C7.34793 6.81875 7.56099 7.04295 7.83216 7.04295ZM11.7449 3.61467C12.1387 3.61467 12.397 3.75314 12.6552 4.05647C12.9135 4.3598 12.9587 4.79501 12.9006 5.18999L12.2872 9.51569C12.171 10.3472 11.4737 10.9598 10.6537 10.9598H3.60967C2.75095 10.9598 2.04074 10.2879 1.96971 9.41744L1.37572 2.22926L0.400783 2.05781C0.142522 2.01165 -0.0382599 1.75449 0.00693567 1.49072C0.0521312 1.22103 0.303935 1.04233 0.568652 1.08255L2.10853 1.31928C2.32805 1.3595 2.48946 1.54348 2.50883 1.76767L2.63151 3.24474C2.65087 3.45641 2.81874 3.61467 3.02535 3.61467H11.7449ZM3.50622 12.002C2.96387 12.002 2.52483 12.4504 2.52483 13.0043C2.52483 13.5516 2.96387 14 3.50622 14C4.04211 14 4.48115 13.5516 4.48115 13.0043C4.48115 12.4504 4.04211 12.002 3.50622 12.002ZM10.7697 12.002C10.2274 12.002 9.78835 12.4504 9.78835 13.0043C9.78835 13.5516 10.2274 14 10.7697 14C11.3056 14 11.7447 13.5516 11.7447 13.0043C11.7447 12.4504 11.3056 12.002 10.7697 12.002Z" />
</svg>
